<?xml version="1.0" standalone="no"?>
<!DOCTYPE svg PUBLIC "-//W3C//DTD SVG 20010904//EN"
 "http://www.w3.org/TR/2001/REC-SVG-20010904/DTD/svg10.dtd">
<svg version="1.0" xmlns="http://www.w3.org/2000/svg"
 width="700.000000pt" height="700.000000pt" viewBox="0 0 700.000000 700.000000"
 preserveAspectRatio="xMidYMid meet">
<metadata>
Created by potrace 1.14, written by Peter Selinger 2001-2017
</metadata>
<g transform="translate(0.000000,700.000000) scale(0.100000,-0.100000)"
fill="#000000" stroke="none">
<path d="M6219 6666 c-84 -30 -128 -77 -218 -231 l-70 -120 -35 3 c-20 2 -45
-2 -55 -8 -18 -9 -21 -6 -31 32 -33 122 -129 235 -247 291 l-68 32 -2095 0
-2095 0 -75 -36 c-114 -55 -191 -141 -231 -257 -15 -43 -19 -84 -19 -184 l0
-128 -82 0 c-265 -1 -409 -77 -497 -260 l-36 -75 0 -2545 0 -2545 22 -55 c46
-111 142 -207 253 -253 l55 -22 2106 0 2105 0 76 38 c116 57 191 152 217 275
7 34 11 185 11 417 l0 363 304 301 303 302 5 1337 5 1338 98 170 c54 93 125
201 157 239 145 170 320 477 401 703 39 109 40 147 6 178 -11 9 -19 21 -19 27
0 5 24 50 54 100 104 179 110 193 110 282 0 95 -25 156 -90 221 -74 74 -224
107 -325 70z m161 -201 c69 -35 67 -90 -6 -220 -31 -55 -57 -101 -59 -103 -1
-2 -44 20 -94 49 l-91 52 36 66 c93 167 134 197 214 156z m-900 -19 c60 -31
109 -86 125 -140 9 -28 15 -90 15 -141 l0 -91 -72 -120 c-80 -133 -183 -342
-221 -450 -33 -91 -535 -962 -596 -1032 -77 -90 -107 -139 -140 -232 -26 -72
-45 -104 -102 -172 -106 -126 -204 -278 -281 -435 l-70 -142 -38 -325 c-42
-356 -41 -379 7 -449 42 -61 105 -92 183 -92 43 1 76 7 98 19 41 22 464 336
511 380 87 80 289 437 356 628 20 56 41 93 81 140 59 68 110 160 139 248 16
48 131 260 141 260 2 0 4 -484 4 -1075 l0 -1075 -491 0 -491 0 -34 -34 -34
-34 0 -481 0 -481 -1622 2 -1623 3 -40 21 c-22 11 -53 40 -70 63 l-30 43 -3
258 -3 259 26 7 c38 9 123 -2 151 -21 13 -8 30 -30 38 -49 30 -71 114 -90 167
-37 24 24 29 38 29 76 0 83 -49 150 -150 201 -47 24 -70 28 -157 32 l-103 4 0
203 c0 233 -9 215 105 215 72 0 105 -18 105 -59 0 -43 51 -86 101 -86 34 0 46
6 70 33 41 45 40 107 -1 180 -58 100 -154 146 -295 140 l-85 -3 0 198 0 197
26 10 c34 13 103 13 142 -1 31 -10 34 -15 46 -72 7 -31 58 -67 94 -67 31 0 79
26 92 49 16 30 11 102 -9 146 -25 53 -84 109 -146 137 -41 19 -67 23 -147 23
l-98 0 0 197 0 197 37 10 c47 14 79 14 122 1 39 -11 51 -24 51 -58 0 -13 13
-37 29 -53 23 -23 38 -29 71 -29 61 0 100 41 100 105 0 90 -57 170 -155 217
-53 25 -71 28 -157 28 l-98 0 0 199 c0 228 -9 211 105 211 73 0 105 -18 105
-59 0 -34 40 -77 80 -86 38 -8 94 18 109 51 32 71 -8 179 -88 241 -62 47 -136
66 -233 61 l-78 -5 0 199 0 198 26 10 c53 21 157 7 176 -23 4 -7 8 -22 8 -35
0 -13 13 -37 29 -53 41 -41 101 -41 142 0 24 25 29 38 29 78 -1 91 -65 179
-165 225 -41 19 -67 23 -147 23 l-98 0 0 196 c0 220 -6 204 77 214 73 8 115
-11 131 -59 16 -51 29 -66 69 -83 28 -11 38 -11 67 1 45 19 66 52 66 104 0 87
-58 168 -155 214 -53 25 -71 28 -157 28 l-98 0 0 200 0 199 35 7 c20 3 61 4
92 2 60 -5 83 -23 83 -63 0 -28 41 -72 74 -81 37 -9 69 1 99 32 58 57 21 190
-72 260 -57 44 -126 64 -218 64 -40 0 -73 3 -73 7 0 19 54 95 83 115 l32 23
1820 6 c2417 7 2302 8 2345 -15z m-4510 -2863 c0 -1436 4 -2290 10 -2328 21
-131 105 -242 228 -302 l57 -28 1728 -3 1729 -2 139 137 140 137 -3 -280 -3
-281 -28 -42 c-18 -27 -44 -50 -70 -62 -41 -18 -100 -19 -2091 -19 -1507 0
-2059 3 -2087 11 -52 16 -103 61 -128 112 l-21 43 0 2500 c0 2413 1 2500 19
2539 25 54 79 104 132 120 24 8 90 14 147 14 l102 1 0 -2267z m3432 -548 c48
-27 88 -53 88 -56 0 -11 -189 -149 -205 -149 -18 0 -18 3 -5 111 16 127 20
151 28 147 4 -2 47 -25 94 -53z m998 -1158 c-36 -35 -190 -186 -342 -337
l-278 -274 0 337 0 337 342 0 343 0 -65 -63z"/>
<path d="M2365 6246 c-335 -77 -565 -364 -565 -706 0 -200 67 -358 215 -505
73 -74 106 -99 175 -133 123 -60 194 -77 330 -76 131 0 217 20 330 80 275 144
428 450 376 752 -9 50 -16 94 -16 96 0 2 94 79 209 171 134 107 214 178 221
196 34 82 -58 166 -138 127 -16 -8 -108 -79 -205 -157 l-177 -141 -87 87
c-152 152 -290 213 -493 219 -74 2 -136 -1 -175 -10z m280 -211 c84 -22 165
-69 224 -128 93 -95 105 -70 -124 -254 l-203 -162 -83 122 c-68 98 -90 123
-116 130 -70 20 -133 -26 -133 -97 0 -36 14 -63 106 -201 59 -88 116 -170 127
-182 24 -27 80 -40 110 -25 12 5 121 89 241 185 121 97 223 174 228 171 12 -8
9 -81 -6 -155 -37 -175 -166 -322 -332 -379 -278 -97 -584 66 -659 351 -31
115 -13 268 43 373 38 72 145 177 215 211 113 54 248 69 362 40z"/>
<path d="M3678 5831 c-85 -76 3 -210 108 -166 34 14 64 59 64 95 0 31 -29 76
-57 89 -42 19 -81 13 -115 -18z"/>
<path d="M4101 5844 c-29 -21 -52 -74 -44 -105 8 -34 50 -76 81 -82 35 -7 85
14 106 44 62 88 -55 205 -143 143z"/>
<path d="M4499 5831 c-40 -41 -41 -98 -1 -142 62 -70 172 -24 172 72 0 57 -42
99 -100 99 -33 0 -48 -6 -71 -29z"/>
<path d="M4931 5846 c-30 -17 -50 -53 -51 -91 -1 -87 111 -131 174 -69 30 31
38 70 21 110 -24 58 -89 81 -144 50z"/>
<path d="M3600 5427 c-14 -7 -33 -29 -43 -50 -16 -31 -17 -42 -7 -73 21 -61
55 -74 200 -74 145 0 179 13 200 74 10 31 9 42 -7 73 -26 55 -50 63 -193 63
-80 0 -134 -5 -150 -13z"/>
<path d="M4194 5406 c-45 -45 -47 -92 -5 -138 l29 -33 391 -3 c435 -3 437 -3
468 62 19 40 12 74 -21 113 l-24 28 -402 3 -401 3 -35 -35z"/>
<path d="M1829 4381 c-40 -41 -41 -101 -1 -141 l28 -28 1034 -7 c569 -4 1118
-5 1220 -4 207 4 229 11 250 74 15 44 4 80 -32 110 l-30 25 -1220 0 -1220 0
-29 -29z"/>
<path d="M1855 3988 c-62 -33 -73 -107 -26 -160 l29 -33 118 -4 c141 -4 187 7
214 52 30 48 26 83 -14 123 l-34 34 -133 0 c-78 0 -142 -5 -154 -12z"/>
<path d="M2450 3971 c-38 -37 -45 -70 -26 -115 22 -52 61 -66 184 -66 124 0
155 6 186 36 30 31 38 70 21 110 -24 57 -44 64 -198 64 l-139 0 -28 -29z"/>
<path d="M3063 3965 c-32 -32 -35 -40 -30 -76 7 -50 29 -76 76 -90 23 -6 153
-9 359 -7 l324 3 29 33 c41 45 41 102 0 143 l-29 29 -347 0 -347 0 -35 -35z"/>
<path d="M1855 3578 c-62 -33 -73 -107 -26 -160 l29 -33 419 -3 c230 -2 432 0
449 3 37 6 80 46 86 78 8 41 -11 87 -45 107 -30 19 -52 20 -462 20 -293 -1
-436 -4 -450 -12z"/>
<path d="M3064 3556 c-51 -51 -43 -119 18 -156 31 -19 51 -20 306 -20 223 0
278 3 302 15 69 36 81 106 26 161 l-34 34 -292 0 -292 0 -34 -34z"/>
<path d="M1848 3163 c-55 -35 -64 -105 -19 -155 l29 -33 851 -3 c939 -3 893
-6 927 59 20 40 12 88 -22 120 l-26 24 -856 2 c-785 2 -859 1 -884 -14z"/>
<path d="M1864 2761 c-78 -33 -85 -146 -10 -186 26 -14 54 -16 163 -13 130 3
133 4 160 31 40 39 40 105 0 144 -27 28 -30 28 -160 30 -72 1 -142 -2 -153 -6z"/>
<path d="M2464 2751 c-46 -28 -61 -80 -37 -128 26 -55 50 -63 193 -63 106 0
130 3 156 19 44 27 60 77 40 124 -23 56 -56 67 -198 67 -104 0 -128 -3 -154
-19z"/>
<path d="M3095 2761 c-65 -27 -82 -118 -32 -168 l27 -28 333 -3 c182 -2 343 0
355 3 86 21 97 151 17 190 -28 13 -84 15 -357 14 -177 0 -332 -4 -343 -8z"/>
<path d="M1864 2350 c-57 -23 -83 -111 -46 -156 34 -43 43 -44 487 -44 360 0
430 2 455 15 76 39 66 154 -17 186 -31 11 -850 11 -879 -1z"/>
<path d="M3090 2342 c-68 -34 -80 -104 -26 -158 l34 -34 540 0 c320 0 551 4
566 10 51 19 74 93 46 145 -29 55 -33 55 -602 55 -478 0 -526 -2 -558 -18z"/>
<path d="M1864 1936 c-41 -18 -64 -52 -64 -94 0 -44 14 -68 50 -87 25 -13 140
-15 879 -15 l851 0 30 28 c62 55 42 149 -37 171 -25 7 -312 11 -858 11 -668
-1 -826 -3 -851 -14z"/>
<path d="M3903 1930 c-64 -39 -72 -103 -19 -156 l34 -34 142 0 142 0 29 29
c35 36 41 80 17 128 -20 41 -66 53 -195 53 -99 0 -123 -3 -150 -20z"/>
</g>
</svg>
